<svg width="24" height="25" viewBox="0 0 24 25" fill="none" xmlns="http://www.w3.org/2000/svg">
<path d="M8.00001 7.59843V5.82843C8.66722 5.59253 9.22956 5.12836 9.58764 4.51795C9.94571 3.90754 10.0765 3.19019 9.9568 2.49269C9.83713 1.7952 9.47473 1.16246 8.93367 0.706322C8.3926 0.25018 7.70769 0 7.00001 0C6.29232 0 5.60741 0.25018 5.06635 0.706322C4.52528 1.16246 4.16288 1.7952 4.04321 2.49269C3.92354 3.19019 4.0543 3.90754 4.41237 4.51795C4.77045 5.12836 5.33279 5.59253 6.00001 5.82843V8.01243C6.00006 8.27762 6.10546 8.53193 6.29301 8.71943L9.00001 11.4264V23.0124C9.00001 23.2776 9.10536 23.532 9.2929 23.7195C9.48044 23.9071 9.73479 24.0124 10 24.0124C10.2652 24.0124 10.5196 23.9071 10.7071 23.7195C10.8946 23.532 11 23.2776 11 23.0124V11.0124C10.9999 10.7472 10.8946 10.4929 10.707 10.3054L8.00001 7.59843Z" fill="#722ED1"/>
<path d="M4.00001 16.5984V14.8284C4.66722 14.5925 5.22956 14.1284 5.58764 13.5179C5.94571 12.9075 6.07647 12.1902 5.9568 11.4927C5.83713 10.7952 5.47474 10.1625 4.93367 9.70632C4.3926 9.25018 3.70769 9 3.00001 9C2.29232 9 1.60741 9.25018 1.06635 9.70632C0.525277 10.1625 0.162882 10.7952 0.0432105 11.4927C-0.0764608 12.1902 0.0542975 12.9075 0.412375 13.5179C0.770452 14.1284 1.33279 14.5925 2.00001 14.8284V17.0124C2.00006 17.2776 2.10546 17.5319 2.29301 17.7194L5.00001 20.4264V23.0124C5.00001 23.2776 5.10536 23.532 5.2929 23.7195C5.48044 23.9071 5.73479 24.0124 6.00001 24.0124C6.26522 24.0124 6.51958 23.9071 6.70711 23.7195C6.89465 23.532 7.00001 23.2776 7.00001 23.0124V20.0124C6.99995 19.7472 6.89456 19.4929 6.70701 19.3054L4.00001 16.5984Z" fill="#722ED1"/>
<path d="M18 8.01243V5.82843C18.6672 5.59253 19.2296 5.12836 19.5876 4.51795C19.9457 3.90754 20.0765 3.19019 19.9568 2.49269C19.8371 1.7952 19.4747 1.16246 18.9337 0.706322C18.3926 0.25018 17.7077 0 17 0C16.2923 0 15.6074 0.25018 15.0663 0.706322C14.5253 1.16246 14.1629 1.7952 14.0432 2.49269C13.9235 3.19019 14.0543 3.90754 14.4124 4.51795C14.7705 5.12836 15.3328 5.59253 16 5.82843V7.59843L13.293 10.3054C13.1055 10.4929 13.0001 10.7472 13 11.0124V23.0124C13 23.2776 13.1054 23.532 13.2929 23.7195C13.4804 23.9071 13.7348 24.0124 14 24.0124C14.2652 24.0124 14.5196 23.9071 14.7071 23.7195C14.8947 23.532 15 23.2776 15 23.0124V11.4264L17.707 8.71943C17.8946 8.53193 18 8.27762 18 8.01243Z" fill="#722ED1"/>
<path d="M24 12.0124C24.0023 11.4619 23.853 10.9214 23.5686 10.45C23.2842 9.97867 22.8755 9.59467 22.3874 9.34008C21.8993 9.08548 21.3505 8.97011 20.8012 9.0066C20.2519 9.04308 19.7232 9.23001 19.2731 9.54692C18.8229 9.86384 18.4686 10.2985 18.249 10.8033C18.0294 11.3082 17.953 11.8637 18.0281 12.4091C18.1031 12.9544 18.3268 13.4687 18.6746 13.8954C19.0224 14.3221 19.481 14.6449 20 14.8284V16.5984L17.293 19.3054C17.1055 19.4929 17.0001 19.7472 17 20.0124V23.0124C17 23.2776 17.1054 23.532 17.2929 23.7195C17.4804 23.9071 17.7348 24.0124 18 24.0124C18.2652 24.0124 18.5196 23.9071 18.7071 23.7195C18.8947 23.532 19 23.2776 19 23.0124V20.4264L21.707 17.7194C21.8946 17.5319 22 17.2776 22 17.0124V14.8284C22.5829 14.6223 23.0879 14.2412 23.4459 13.7371C23.8039 13.233 23.9974 12.6307 24 12.0124Z" fill="#722ED1"/>
</svg>
