<svg width="112" height="30" viewBox="0 0 112 30" fill="none" xmlns="http://www.w3.org/2000/svg">
<path d="M24.1113 29.063H4.93506C3.62743 29.059 2.37483 28.5378 1.4502 27.6132C0.52556 26.6886 0.00395654 25.4356 0 24.128V4.95201C0.00422015 3.64456 0.525588 2.39187 1.4502 1.46745C2.3748 0.543033 3.6276 0.0219606 4.93506 0.0180054H24.1113C25.4187 0.0219619 26.6713 0.543066 27.5957 1.46751C28.5202 2.39196 29.0415 3.64465 29.0454 4.95201V24.128C29.0463 24.7762 28.919 25.4182 28.6714 26.0173C28.4238 26.6163 28.0604 27.1606 27.6021 27.6189C27.1437 28.0773 26.5995 28.4407 26.0005 28.6883C25.4015 28.9359 24.7595 29.0629 24.1113 29.062" fill="#8989A2"/>
<path d="M24.1102 0.00100708H14.5224V14.523H29.0443V4.935C29.0433 3.62648 28.5228 2.37186 27.5976 1.44659C26.6723 0.521332 25.4178 0.00105932 24.1093 0" fill="#A0A0BD"/>
<path d="M14.5224 29.063H24.1102C25.4179 29.059 26.671 28.5378 27.5956 27.6132C28.5202 26.6886 29.0413 25.4356 29.0453 24.128V14.54H14.5233L14.5224 29.063Z" fill="#BCBCD8"/>
<path d="M54.5104 18.605C54.5634 18.6058 54.6154 18.6174 54.6637 18.6391C54.712 18.6608 54.7553 18.692 54.7912 18.731L55.5285 19.536C54.9601 20.1957 54.253 20.7222 53.4582 21.078C52.5311 21.4694 51.531 21.658 50.5251 21.631C49.591 21.644 48.6644 21.4674 47.8005 21.112C47.0091 20.7822 46.298 20.286 45.7155 19.657C45.1235 19.0059 44.6681 18.2424 44.3771 17.412C44.051 16.4873 43.8898 15.5125 43.901 14.532C43.8897 13.5486 44.0629 12.5717 44.4113 11.652C44.7296 10.8124 45.2164 10.0467 45.8415 9.402C46.4672 8.76737 47.2181 8.27043 48.047 7.943C48.95 7.58854 49.9135 7.41228 50.8835 7.42399C51.7875 7.40192 52.6862 7.56352 53.526 7.89899C54.2554 8.20847 54.9239 8.64529 55.5002 9.189L54.8893 10.052C54.847 10.1137 54.7944 10.1678 54.734 10.212C54.6587 10.2588 54.5706 10.2808 54.4821 10.275C54.386 10.2713 54.2935 10.2392 54.2155 10.183C54.1215 10.121 54.0095 10.046 53.8815 9.95499C53.7535 9.86399 53.5995 9.76799 53.4245 9.66399C53.2265 9.54939 53.019 9.45203 52.8044 9.37299C52.5332 9.27373 52.2543 9.19747 51.9704 9.145C51.6091 9.07974 51.2422 9.04894 50.8752 9.053C50.1759 9.04449 49.4818 9.17466 48.8332 9.436C48.2282 9.68149 47.6826 10.0535 47.2331 10.527C46.7713 11.025 46.4166 11.6124 46.1911 12.253C45.9333 12.9847 45.8066 13.7562 45.8171 14.532C45.8046 15.3206 45.9312 16.1053 46.1911 16.85C46.414 17.4852 46.7604 18.0701 47.2101 18.571C47.6342 19.0359 48.1559 19.4016 48.7375 19.642C49.3398 19.8906 49.9858 20.016 50.6374 20.011C51.0103 20.0136 51.3827 19.9892 51.7521 19.938C52.0648 19.8938 52.3721 19.8174 52.6691 19.71C52.9449 19.6093 53.2084 19.4775 53.4543 19.317C53.7124 19.1469 53.957 18.9574 54.1862 18.75C54.2725 18.6632 54.3882 18.6115 54.5104 18.605Z" fill="#8989A2"/>
<path d="M59.649 7.19098V21.475H57.9234V7.19098H59.649Z" fill="#8989A2"/>
<path d="M66.5842 11.4969C67.1417 11.4926 67.6947 11.5944 68.2141 11.797C68.6998 11.9864 69.1396 12.2772 69.5041 12.6499C69.8801 13.0447 70.1694 13.5137 70.3532 14.0269C70.5637 14.6264 70.6651 15.2587 70.653 15.894C70.6693 16.0794 70.6395 16.2659 70.5661 16.437C70.5276 16.4862 70.477 16.5246 70.4192 16.5484C70.3613 16.5723 70.2981 16.5807 70.2361 16.573H63.6994C63.701 17.1223 63.7859 17.6682 63.9514 18.192C64.0863 18.6139 64.3039 19.0045 64.592 19.341C64.8566 19.6438 65.1892 19.8798 65.5622 20.03C65.9635 20.1868 66.3912 20.2642 66.822 20.258C67.2011 20.2657 67.5793 20.2151 67.9431 20.108C68.2212 20.022 68.4919 19.9133 68.7522 19.783C68.9471 19.6847 69.1366 19.5762 69.32 19.4579C69.4338 19.3717 69.5699 19.3197 69.7121 19.308C69.7768 19.3052 69.8412 19.3189 69.8991 19.3477C69.957 19.3766 70.0065 19.4197 70.0432 19.473L70.5271 20.103C70.3086 20.3663 70.0505 20.5938 69.7614 20.7769C69.462 20.9688 69.1419 21.1265 68.8073 21.2469C68.4653 21.3703 68.1127 21.4627 67.7541 21.523C67.3987 21.5838 67.0391 21.6146 66.6784 21.615C66.0368 21.6217 65.3994 21.5049 64.802 21.271C64.2394 21.0478 63.7329 20.7037 63.3181 20.263C62.8831 19.7883 62.5513 19.2285 62.344 18.619C62.0999 17.8944 61.9823 17.1334 61.9953 16.369C61.9898 15.7157 62.0963 15.0663 62.3103 14.449C62.5061 13.8778 62.8143 13.3518 63.217 12.9019C63.619 12.4596 64.1118 12.109 64.6614 11.8739C65.2691 11.6159 65.924 11.4875 66.5842 11.4969ZM66.6233 12.768C66.2634 12.748 65.9031 12.8018 65.5647 12.9259C65.2263 13.0501 64.9166 13.242 64.655 13.49C64.1449 14.0399 63.8313 14.743 63.7624 15.49H69.1062C69.1102 15.1168 69.0544 14.7455 68.9411 14.39C68.8395 14.0725 68.6746 13.7789 68.4563 13.5269C68.2412 13.2836 67.9741 13.0916 67.675 12.965C67.3415 12.828 66.9837 12.7609 66.6233 12.768Z" fill="#8989A2"/>
<path d="M80.071 21.475H79.3039C79.1644 21.4806 79.0257 21.454 78.8982 21.397C78.8412 21.3616 78.7933 21.3133 78.7585 21.2559C78.7238 21.1986 78.703 21.1339 78.698 21.067L78.5051 20.155C78.2464 20.3877 77.9943 20.5963 77.7483 20.781C77.5065 20.9626 77.246 21.1184 76.9719 21.246C76.6948 21.3742 76.4042 21.4702 76.1052 21.532C75.7685 21.6005 75.4258 21.634 75.0822 21.632C74.719 21.6344 74.3574 21.5801 74.0109 21.471C73.6917 21.3714 73.3966 21.2073 73.1433 20.989C72.89 20.765 72.6891 20.4877 72.5559 20.177C72.4026 19.8089 72.3285 19.4126 72.3381 19.014C72.34 18.6171 72.4505 18.2283 72.6579 17.89C72.9149 17.4878 73.2703 17.1578 73.6901 16.931C74.2751 16.6111 74.904 16.3799 75.5568 16.245C76.4846 16.0506 77.4314 15.9607 78.3791 15.977V15.206C78.4231 14.586 78.2496 13.9701 77.8889 13.464C77.7083 13.2614 77.484 13.1029 77.2326 13.0006C76.9813 12.8983 76.7099 12.855 76.4392 12.874C76.0785 12.8643 75.719 12.9185 75.3772 13.034C75.1164 13.1275 74.866 13.2478 74.6301 13.393C74.4201 13.5263 74.2391 13.646 74.0871 13.752C73.9574 13.8508 73.7999 13.9068 73.6369 13.912C73.5278 13.9145 73.4209 13.8823 73.3313 13.82C73.2454 13.7609 73.1743 13.6829 73.1233 13.592L72.8112 13.039C73.3171 12.5404 73.9128 12.1424 74.5671 11.866C75.2298 11.6006 75.9383 11.4687 76.6521 11.478C77.1533 11.4688 77.6512 11.561 78.1159 11.749C78.5263 11.9185 78.8942 12.1766 79.1931 12.505C79.4927 12.8452 79.7172 13.2449 79.8513 13.678C80.0052 14.1674 80.0805 14.678 80.0749 15.191L80.071 21.475ZM75.591 20.418C75.8717 20.4207 76.1517 20.3899 76.425 20.326C76.6721 20.2667 76.9112 20.1788 77.1379 20.064C77.3648 19.9485 77.5797 19.8104 77.779 19.652C77.9921 19.4824 78.1928 19.2976 78.3791 19.099V17.072C77.7003 17.0628 77.0222 17.1133 76.3523 17.223C75.8852 17.2975 75.4289 17.4302 74.9948 17.618C74.6957 17.7416 74.4336 17.9399 74.2331 18.194C74.0765 18.4091 73.9931 18.6689 73.9958 18.935C73.9902 19.1657 74.0336 19.395 74.1223 19.608C74.1984 19.7864 74.3146 19.9449 74.4621 20.071C74.608 20.1935 74.7785 20.2833 74.9621 20.334C75.1665 20.3911 75.3778 20.4194 75.5901 20.418H75.591Z" fill="#8989A2"/>
<path d="M82.6901 21.475V11.652H83.6793C83.8175 11.6373 83.9559 11.6755 84.067 11.759C84.1526 11.864 84.2035 11.9929 84.213 12.128L84.3292 13.66C84.6174 13.0388 85.0437 12.4916 85.5753 12.06C86.0726 11.6743 86.6868 11.4707 87.316 11.483C87.5647 11.4801 87.813 11.511 88.0533 11.575C88.2672 11.6342 88.4723 11.7206 88.6642 11.832L88.441 13.122C88.429 13.1919 88.3922 13.255 88.337 13.2995C88.2818 13.3441 88.2121 13.367 88.1412 13.364C87.9986 13.3534 87.8581 13.3224 87.7242 13.272C87.4684 13.2018 87.2033 13.1708 86.9381 13.18C86.3882 13.162 85.8514 13.3487 85.4313 13.704C84.9784 14.1244 84.6311 14.646 84.4181 15.226V21.481L82.6901 21.475Z" fill="#8989A2"/>
<path d="M90.5652 21.475V7.19098H92.3001V13.068C92.694 12.6068 93.1683 12.2209 93.7 11.929C94.2566 11.6339 94.8792 11.4852 95.509 11.497C96.04 11.4892 96.5661 11.5985 97.0501 11.817C97.514 12.0339 97.9176 12.3619 98.2244 12.772C98.5707 13.2436 98.8238 13.7767 98.971 14.343C99.1558 15.0471 99.2441 15.7731 99.2332 16.501C99.2391 17.1858 99.141 17.8676 98.9422 18.523C98.7672 19.1108 98.4826 19.6601 98.1033 20.142C97.7417 20.5945 97.285 20.9619 96.7654 21.218C96.2109 21.4861 95.601 21.6207 94.9851 21.611C94.4247 21.628 93.8696 21.5009 93.3723 21.242C92.9169 20.9858 92.5213 20.6353 92.2122 20.214L92.1253 21.106C92.1136 21.2133 92.0604 21.3118 91.9773 21.3807C91.8942 21.4496 91.788 21.4834 91.6804 21.475H90.5652ZM94.948 12.875C94.4285 12.8637 93.9161 12.9981 93.469 13.263C93.0137 13.5526 92.6174 13.9258 92.301 14.363V19.115C92.5623 19.4984 92.9178 19.8083 93.3333 20.015C93.7311 20.1936 94.1633 20.283 94.5994 20.277C95.0049 20.2989 95.4096 20.2211 95.7781 20.0504C96.1466 19.8798 96.4676 19.6214 96.7132 19.298C97.254 18.471 97.5124 17.4911 97.45 16.505C97.4592 15.9505 97.4022 15.3969 97.28 14.856C97.191 14.4513 97.0248 14.0676 96.7903 13.726C96.592 13.4437 96.3205 13.2207 96.0051 13.081C95.6698 12.9385 95.3084 12.868 94.9441 12.874L94.948 12.875Z" fill="#8989A2"/>
<path d="M103.655 8.57299C103.657 8.73514 103.623 8.89569 103.555 9.04299C103.488 9.18698 103.396 9.31825 103.284 9.43099C103.171 9.54415 103.038 9.63476 102.891 9.69799C102.741 9.76405 102.579 9.79811 102.415 9.798C102.253 9.79868 102.093 9.76457 101.945 9.69799C101.8 9.63417 101.669 9.54359 101.557 9.43099C101.445 9.31948 101.354 9.18789 101.289 9.04299C101.223 8.89513 101.189 8.73496 101.189 8.57299C101.19 8.40787 101.224 8.24456 101.289 8.09299C101.352 7.9435 101.443 7.80764 101.557 7.693C101.669 7.58055 101.801 7.48999 101.945 7.426C102.093 7.35954 102.253 7.32543 102.415 7.326C102.579 7.326 102.741 7.36006 102.891 7.426C103.038 7.4894 103.171 7.58 103.284 7.693C103.398 7.80884 103.49 7.94436 103.555 8.09299C103.623 8.24401 103.657 8.40768 103.655 8.57299ZM103.268 11.657V21.48H101.54V11.657H103.268Z" fill="#8989A2"/>
<path d="M109.289 21.63C108.962 21.6514 108.634 21.6047 108.326 21.4928C108.018 21.3809 107.737 21.2063 107.5 20.98C107.053 20.463 106.828 19.7901 106.874 19.1079V13.096H105.691C105.595 13.0989 105.502 13.0661 105.429 13.004C105.391 12.967 105.362 12.9222 105.344 12.8728C105.326 12.8234 105.319 12.7705 105.323 12.7179V12.03L106.932 11.8299L107.332 8.79496C107.343 8.70253 107.388 8.61745 107.458 8.55695C107.534 8.49391 107.631 8.46115 107.729 8.46496H108.603V11.85H111.416V13.101H108.604V19.001C108.591 19.1667 108.61 19.3335 108.662 19.4916C108.713 19.6497 108.795 19.796 108.904 19.922C109.006 20.0222 109.127 20.1006 109.261 20.1522C109.394 20.2038 109.537 20.2275 109.68 20.222C109.839 20.2253 109.998 20.2006 110.149 20.1489C110.269 20.1067 110.384 20.0532 110.493 19.989C110.59 19.9303 110.673 19.877 110.74 19.829C110.791 19.787 110.854 19.7615 110.92 19.756C110.971 19.7603 111.021 19.7778 111.063 19.8067C111.106 19.8356 111.14 19.8749 111.163 19.921L111.663 20.745C111.351 21.0323 110.986 21.2549 110.587 21.4C110.172 21.5545 109.732 21.6325 109.289 21.63Z" fill="#8989A2"/>
</svg>
