<svg width="87" height="30" viewBox="0 0 87 30" fill="none" xmlns="http://www.w3.org/2000/svg">
<path fill-rule="evenodd" clip-rule="evenodd" d="M2.1402 28.211H17.3404C18.2765 28.2494 19.2052 28.0308 20.0259 27.5791C20.8467 27.1273 21.5279 26.4595 21.9962 25.648C22.4322 24.7881 22.6035 23.8182 22.4883 22.8609C22.3732 21.9036 21.9768 21.002 21.3492 20.27L12.543 9.70303C12.3155 9.42415 12.2065 9.06725 12.2388 8.70876C12.2712 8.35027 12.4426 8.01869 12.7164 7.78503L21.6812 0.31604L22.8174 1.54204L14.294 8.96404L22.753 19.106C23.5865 20.0847 24.1219 21.2819 24.2955 22.5556C24.469 23.8293 24.2733 25.1261 23.732 26.292C23.1577 27.4373 22.2666 28.3931 21.1641 29.0456C20.0616 29.6981 18.7945 30.0197 17.5142 29.972L2.14117 29.987C2.02531 29.9874 1.91045 29.965 1.80328 29.9209C1.69611 29.8769 1.59878 29.8121 1.51666 29.7304C1.43455 29.6487 1.36929 29.5515 1.32477 29.4446C1.28025 29.3376 1.25752 29.2229 1.25739 29.107V29.091C1.25738 28.9751 1.28031 28.8603 1.32477 28.7532C1.36923 28.6461 1.43405 28.5489 1.51617 28.467C1.5983 28.3852 1.69605 28.3203 1.80328 28.2762C1.91052 28.2321 2.02523 28.2096 2.14117 28.21" fill="#8989A2"/>
<path fill-rule="evenodd" clip-rule="evenodd" d="M1.95023 28.226L17.4014 25.38C17.7749 25.3013 18.1212 25.1264 18.4063 24.8726C18.6913 24.6188 18.9051 24.2949 19.0264 23.933C19.153 23.5733 19.1829 23.1866 19.1138 22.8115C19.0447 22.4365 18.8789 22.086 18.6324 21.795C14.9864 17.408 11.3565 13.052 7.71048 8.65002C7.53305 8.43981 7.40734 8.1907 7.34427 7.92294C7.2812 7.65519 7.28226 7.37633 7.3472 7.10902C7.41124 6.84099 7.53732 6.59174 7.71536 6.38139C7.8934 6.17104 8.11833 6.00548 8.3721 5.89803L21.9781 0.0170288L22.4673 1.74702L9.49319 7.37602C9.44905 7.39074 9.40987 7.41709 9.37943 7.45229C9.34898 7.48748 9.32855 7.53022 9.32034 7.57602C9.30725 7.62221 9.3059 7.67097 9.31693 7.7177C9.32795 7.76442 9.35097 7.80756 9.38333 7.84302C12.9343 12.104 16.4534 16.334 20.0064 20.595C20.4828 21.1199 20.8067 21.7651 20.9429 22.4608C21.0791 23.1565 21.0225 23.8762 20.7793 24.542C20.5731 25.1984 20.1925 25.7864 19.6783 26.2435C19.164 26.7005 18.5354 27.0093 17.8594 27.137L5.6431 29.385L1.95023 28.226Z" fill="#8989A2"/>
<path fill-rule="evenodd" clip-rule="evenodd" d="M22.4053 1.76199L6.95319 4.60799C6.57672 4.67952 6.22667 4.8519 5.94049 5.10674C5.65431 5.36157 5.44273 5.68931 5.32819 6.05499C5.20219 6.41491 5.17248 6.80148 5.24176 7.17647C5.31104 7.55145 5.47692 7.90186 5.72321 8.19299C9.36921 12.58 12.9991 16.936 16.6451 21.323C16.8221 21.5367 16.9473 21.7885 17.0103 22.0587C17.0733 22.3289 17.0726 22.6101 17.0084 22.88C16.9414 23.1467 16.814 23.3946 16.6363 23.6045C16.4586 23.8144 16.2355 23.9809 15.9835 24.091L2.37701 29.972L1.88824 28.242L14.8624 22.613C14.9037 22.5937 14.9405 22.566 14.9703 22.5315C15.0001 22.497 15.0221 22.4566 15.0352 22.413C15.0448 22.3666 15.0441 22.3186 15.0333 22.2725C15.0224 22.2264 15.0016 22.1832 14.9722 22.146C7.27223 12.916 11.1532 17.555 4.35016 9.39398C3.87373 8.86906 3.54988 8.22389 3.41364 7.52821C3.27739 6.83254 3.33399 6.11285 3.57721 5.44699C3.78155 4.78942 4.16154 4.20015 4.67633 3.74281C5.19112 3.28548 5.82104 2.97745 6.49811 2.85199L21.8082 0.00598145L22.4053 1.76199Z" fill="#8989A2"/>
<path fill-rule="evenodd" clip-rule="evenodd" d="M22.2001 1.77802H6.99988C6.0661 1.74235 5.1405 1.96032 4.32068 2.40879C3.50087 2.85726 2.81772 3.51946 2.34412 4.32502C1.91438 5.19016 1.74805 6.16248 1.86609 7.12124C1.98414 8.07999 2.38142 8.98296 3.00818 9.71802L11.8153 20.285C12.0442 20.5647 12.1527 20.9237 12.1171 21.2833C12.0814 21.6429 11.9042 21.9737 11.6249 22.203L2.67713 29.672L1.53992 28.446L10.0472 21.024L1.60291 10.882C0.76968 9.90322 0.234751 8.70596 0.0614049 7.43227C-0.111942 6.15858 0.0835409 4.8619 0.624882 3.69602C1.19707 2.55303 2.08577 1.59852 3.18494 0.946112C4.28411 0.2937 5.54766 -0.0291435 6.82508 0.0160121L22.1981 2.09034e-05C22.4339 -0.00159007 22.6609 0.0899715 22.8295 0.254782C22.998 0.419592 23.0943 0.644299 23.098 0.880011V0.896017C23.0946 1.1319 22.9981 1.35688 22.8295 1.5219C22.6609 1.68693 22.434 1.77862 22.1981 1.77701" fill="#8989A2"/>
<path fill-rule="evenodd" clip-rule="evenodd" d="M10.835 22.864L2.67633 29.673L1.53912 28.446L9.00446 21.936L10.835 22.864Z" fill="#8989A2"/>
<path fill-rule="evenodd" clip-rule="evenodd" d="M13.44 25.191L2.37604 29.971L1.88727 28.241L12.4771 23.65L13.44 25.191Z" fill="#8989A2"/>
<path fill-rule="evenodd" clip-rule="evenodd" d="M1.9502 28.226L14.3242 25.946L14.7974 27.691L5.64307 29.391L1.9502 28.226Z" fill="#8989A2"/>
<path fill-rule="evenodd" clip-rule="evenodd" d="M2.1402 28.21H14.94C15.0855 28.7858 15.1599 29.3772 15.1612 29.971L2.1402 29.987C2.02434 29.9874 1.90948 29.965 1.80231 29.9209C1.69514 29.8769 1.5978 29.8121 1.51569 29.7304C1.43357 29.6487 1.36831 29.5515 1.32379 29.4446C1.27927 29.3376 1.25654 29.2229 1.25641 29.107V29.091C1.25641 28.9751 1.27933 28.8603 1.32379 28.7532C1.36825 28.6461 1.43307 28.5488 1.5152 28.467C1.59732 28.3852 1.69507 28.3203 1.80231 28.2762C1.90954 28.2321 2.02425 28.2096 2.1402 28.21Z" fill="#8989A2"/>
<path fill-rule="evenodd" clip-rule="evenodd" d="M76.0676 20.804C75.9432 20.5531 75.8005 20.3115 75.6413 20.081L72.4685 14.986L76.0686 9.40403L71.7912 9.38803C71.6802 9.41903 68.9184 14.105 68.5554 14.703V5.14303C68.1454 5.11203 65.3043 5.09604 64.9553 5.15904V20.82C65.6973 20.805 68.0954 20.851 68.5554 20.805L68.5715 15.522C68.6815 15.632 71.5075 20.491 71.6335 20.805L76.0676 20.804ZM86.3903 16.039C86.7387 14.5784 86.5424 13.0409 85.8376 11.715C85.1985 10.6361 84.1792 9.83442 82.9802 9.46704C81.545 9.00076 79.9888 9.07907 78.6076 9.68704C77.3643 10.2609 76.3689 11.2631 75.8039 12.5105C75.2389 13.7579 75.1419 15.167 75.5305 16.48C76.2245 19.247 78.5766 20.663 81.2746 20.961C82.7789 21.1504 84.3064 20.9945 85.7414 20.505V17.942H82.8054C81.8526 17.9911 80.9055 17.7674 80.0754 17.297C79.8392 17.162 79.6324 16.9812 79.467 16.7652C79.3016 16.5492 79.1812 16.3023 79.1125 16.039H86.3903ZM79.0183 13.665C79.0231 13.4148 79.0789 13.1683 79.1818 12.9402C79.2848 12.7121 79.4329 12.5074 79.6174 12.3383C79.8019 12.1693 80.0189 12.0394 80.2551 11.9567C80.4912 11.874 80.7418 11.8401 80.9914 11.857C81.2326 11.8413 81.4744 11.8774 81.7004 11.9628C81.9264 12.0482 82.1315 12.181 82.302 12.3523C82.4725 12.5235 82.6043 12.7293 82.6887 12.9557C82.7731 13.1821 82.808 13.424 82.7912 13.665H79.0183ZM57.3015 12.297C57.3646 12.2945 57.4277 12.2999 57.4895 12.313C58.7055 12.344 59.8576 12.879 59.9836 14.027C58.3471 13.8723 56.6973 14.1095 55.1706 14.719C54.4988 14.9911 53.9455 15.4933 53.6101 16.1358C53.2746 16.7784 53.1788 17.5193 53.3396 18.226C53.5056 19.074 53.9792 19.8306 54.6696 20.3501C55.3601 20.8697 56.2185 21.1154 57.0793 21.04C57.6747 21.0773 58.2703 20.9694 58.8147 20.7255C59.359 20.4817 59.8358 20.1091 60.2043 19.64L60.7575 20.819H63.4401L63.3786 14.655C63.3626 13.145 63.2844 11.982 62.3684 10.944C60.9004 9.26203 58.4223 8.86803 56.1013 9.32403C55.3959 9.47026 54.7085 9.69186 54.0505 9.98503V12.296L57.3015 12.297ZM59.9836 17.832C59.6526 18.414 57.2373 18.87 56.9543 17.632C56.5903 15.997 59.5106 16.091 59.9836 16.248V17.832ZM30.9265 19.939C31.0265 20.128 31.3845 20.253 31.5905 20.348C32.3384 20.671 33.1313 20.8777 33.9416 20.961C36.1986 21.228 38.5345 20.819 39.7185 18.807C39.9887 18.3275 40.1396 17.7901 40.1589 17.2401C40.1782 16.69 40.0653 16.1433 39.8293 15.646C38.6613 13.46 35.0475 13.822 34.3205 13.114C34.2297 13.0073 34.1823 12.8702 34.1882 12.7303C34.1941 12.5903 34.2528 12.4577 34.3523 12.359C34.8605 12.0138 35.4829 11.8787 36.0886 11.982H39.5764V10.252C39.4824 10.032 38.5346 9.68603 38.2356 9.57603C36.559 9.00615 34.7376 9.02839 33.0754 9.63903C32.5897 9.82702 32.152 10.1207 31.7937 10.4987C31.4354 10.8768 31.1653 11.3298 31.0036 11.8249C30.842 12.32 30.7924 12.8449 30.8586 13.3615C30.9248 13.8782 31.1052 14.3736 31.3864 14.812C32.3954 16.133 33.8804 16.227 35.6164 16.636C36.0734 16.746 36.8626 16.872 36.8166 17.407C36.7376 18.146 35.2544 18.207 34.6384 18.225H30.9294L30.9265 19.939ZM44.8786 13.193C45.3948 12.6481 46.1024 12.3253 46.8523 12.293C48.4623 12.277 48.7932 13.347 48.7932 14.573L48.7776 15.564V20.816H52.3772C52.3922 18.552 52.3774 16.303 52.4084 14.039C52.5175 12.9456 52.3491 11.8423 51.9192 10.831C51.5688 10.2799 51.0759 9.83394 50.4924 9.5406C49.9089 9.24726 49.2566 9.11747 48.6052 9.16503C47.8957 9.13756 47.1894 9.27349 46.5407 9.56236C45.8921 9.85122 45.3187 10.2853 44.8645 10.831V5.12303H41.2644V20.816H44.8645L44.8786 13.193Z" fill="#8989A2"/>
</svg>
