<svg width="40" height="40" viewBox="0 0 40 40" fill="none" xmlns="http://www.w3.org/2000/svg">
<path d="M20 40C31.0457 40 40 31.0457 40 20C40 8.9543 31.0457 0 20 0C8.9543 0 0 8.9543 0 20C0 31.0457 8.9543 40 20 40Z" fill="#E6F7FF"/>
<path d="M21.624 20.541H18.376C18.3049 20.541 18.2346 20.555 18.169 20.5822C18.1033 20.6094 18.0437 20.6492 17.9934 20.6995C17.9432 20.7497 17.9034 20.8093 17.8762 20.875C17.849 20.9406 17.835 21.011 17.835 21.082V28.118C17.835 28.1891 17.849 28.2594 17.8762 28.325C17.9034 28.3907 17.9432 28.4503 17.9934 28.5006C18.0437 28.5508 18.1033 28.5906 18.169 28.6178C18.2346 28.645 18.3049 28.659 18.376 28.659H21.624C21.7675 28.659 21.9051 28.602 22.0065 28.5006C22.108 28.3991 22.165 28.2615 22.165 28.118V21.082C22.165 20.9385 22.108 20.8009 22.0065 20.6995C21.9051 20.598 21.7675 20.541 21.624 20.541Z" fill="#1890FF"/>
<path d="M15.129 23.7889H11.881C11.7375 23.7889 11.5999 23.8459 11.4985 23.9474C11.397 24.0489 11.34 24.1865 11.34 24.3299V28.1189C11.34 28.2624 11.397 28.4 11.4985 28.5015C11.5999 28.6029 11.7375 28.6599 11.881 28.6599H15.129C15.2725 28.6599 15.4101 28.6029 15.5115 28.5015C15.613 28.4 15.67 28.2624 15.67 28.1189V24.3299C15.67 24.1865 15.613 24.0489 15.5115 23.9474C15.4101 23.8459 15.2725 23.7889 15.129 23.7889Z" fill="#1890FF"/>
<path d="M28.119 17.2939H24.871C24.7999 17.2939 24.7296 17.3079 24.664 17.3351C24.5983 17.3623 24.5387 17.4022 24.4884 17.4524C24.4382 17.5026 24.3984 17.5623 24.3712 17.6279C24.344 17.6936 24.33 17.7639 24.33 17.8349V28.1189C24.33 28.19 24.344 28.2603 24.3712 28.326C24.3984 28.3916 24.4382 28.4513 24.4884 28.5015C24.5387 28.5517 24.5983 28.5916 24.664 28.6188C24.7296 28.646 24.7999 28.6599 24.871 28.6599H28.119C28.2625 28.6599 28.4001 28.6029 28.5015 28.5015C28.603 28.4 28.66 28.2624 28.66 28.1189V17.8349C28.66 17.6915 28.603 17.5539 28.5015 17.4524C28.4001 17.3509 28.2625 17.2939 28.119 17.2939Z" fill="#1890FF"/>
<path d="M20 17.84C20.0712 17.84 20.1416 17.826 20.2074 17.7987C20.2731 17.7714 20.3328 17.7314 20.383 17.681L24.872 13.188V15.67H25.955V11.881C25.955 11.8098 25.9409 11.7392 25.9136 11.6735C25.8863 11.6077 25.8463 11.548 25.7958 11.4977C25.7454 11.4475 25.6855 11.4076 25.6196 11.3806C25.5538 11.3535 25.4832 11.3397 25.412 11.34H21.624V12.423H24.106L20 16.529L17.677 14.205C17.5755 14.1035 17.4379 14.0466 17.2945 14.0466C17.151 14.0466 17.0134 14.1035 16.912 14.205L14.205 16.911L14.97 17.676L17.294 15.353L19.618 17.677C19.6677 17.728 19.7271 17.7687 19.7927 17.7967C19.8583 17.8246 19.9287 17.8394 20 17.84Z" fill="#1890FF"/>
</svg>
