<svg width="26" height="18" viewBox="0 0 26 18" fill="none" xmlns="http://www.w3.org/2000/svg">
<path d="M25.6196 7.939C24.4363 5.56997 22.6207 3.57448 20.3736 2.17332C18.1265 0.772174 15.5356 0.0199896 12.8876 0C10.2396 0.0202154 7.64881 0.772492 5.40178 2.17362C3.15476 3.57474 1.33908 5.57011 0.155601 7.939C0.0532992 8.14147 0 8.36515 0 8.592C0 8.81885 0.0532992 9.04253 0.155601 9.245C1.3389 11.614 3.15454 13.6095 5.4016 15.0107C7.64867 16.4118 10.2396 17.164 12.8876 17.184C15.5356 17.1638 18.1264 16.4115 20.3734 15.0104C22.6204 13.6093 24.4361 11.6139 25.6196 9.245C25.7219 9.04253 25.7752 8.81885 25.7752 8.592C25.7752 8.36515 25.7219 8.14147 25.6196 7.939ZM12.8876 15.039C11.6131 15.039 10.3672 14.6611 9.30751 13.953C8.2478 13.2449 7.42185 12.2385 6.93412 11.061C6.44639 9.88352 6.31878 8.58785 6.56742 7.33784C6.81606 6.08782 7.4298 4.93961 8.33101 4.0384C9.23221 3.13719 10.3804 2.52346 11.6304 2.27482C12.8805 2.02618 14.1761 2.15379 15.3536 2.64152C16.5311 3.12925 17.5375 3.95519 18.2456 5.0149C18.9537 6.07462 19.3316 7.3205 19.3316 8.595C19.3308 10.3035 18.6515 11.9418 17.4431 13.1497C16.2347 14.3575 14.5961 15.036 12.8876 15.036V15.039ZM12.8876 4.299C12.504 4.30445 12.1229 4.36164 11.7546 4.469C12.0589 4.88138 12.2052 5.38926 12.1669 5.90035C12.1286 6.41144 11.9082 6.89183 11.5458 7.25424C11.1834 7.61664 10.703 7.83702 10.1919 7.87533C9.68086 7.91364 9.17298 7.76733 8.7606 7.463C8.5257 8.32821 8.56802 9.2453 8.88162 10.0852C9.19522 10.9251 9.76431 11.6455 10.5088 12.145C11.2533 12.6446 12.1356 12.8981 13.0317 12.8699C13.9278 12.8417 14.7925 12.5332 15.5041 11.9878C16.2156 11.4424 16.7383 10.6877 16.9984 9.8297C17.2586 8.97174 17.2432 8.0538 16.9543 7.20508C16.6655 6.35635 16.1177 5.61958 15.3882 5.09844C14.6587 4.57731 13.7841 4.29806 12.8876 4.3V4.299Z" fill="#722ED1"/>
</svg>
