<svg width="40" height="40" viewBox="0 0 40 40" fill="none" xmlns="http://www.w3.org/2000/svg">
<path d="M20 40C31.0457 40 40 31.0457 40 20C40 8.9543 31.0457 0 20 0C8.9543 0 0 8.9543 0 20C0 31.0457 8.9543 40 20 40Z" fill="#FFF1F0"/>
<path d="M14.985 19.438V12.471H24.037V19.438L26.944 17.823L25.044 16.708V11.965C25.044 11.8324 24.9913 11.7052 24.8976 11.6114C24.8038 11.5176 24.6766 11.465 24.544 11.465H14.482C14.3494 11.465 14.2222 11.5176 14.1284 11.6114C14.0347 11.7052 13.982 11.8324 13.982 11.965V16.706L12.062 17.815L14.985 19.438Z" fill="#F5222D"/>
<path d="M19.755 22.9669C19.6804 23.0086 19.5964 23.0305 19.511 23.0305C19.4256 23.0305 19.3416 23.0086 19.267 22.9669L11.465 18.6329V27.0529C11.465 27.1855 11.5177 27.3127 11.6114 27.4065C11.7052 27.5003 11.8324 27.5529 11.965 27.5529H27.054C27.1866 27.5529 27.3138 27.5003 27.4076 27.4065C27.5013 27.3127 27.554 27.1855 27.554 27.0529V18.6329L19.755 22.9669Z" fill="#F5222D"/>
<path d="M18.002 18.7129L16.138 16.8489C16.091 16.8024 16.0537 16.7471 16.0282 16.686C16.0027 16.625 15.9896 16.5596 15.9896 16.4934C15.9896 16.4273 16.0027 16.3618 16.0282 16.3008C16.0537 16.2398 16.091 16.1844 16.138 16.1379L18.002 14.2739L18.713 14.9849L17.205 16.4939L18.714 18.0029L18.002 18.7129Z" fill="#F5222D"/>
<path d="M21.022 18.713L20.311 18.002L21.82 16.493L20.308 14.988L21.019 14.277L22.883 16.138C22.93 16.1845 22.9673 16.2398 22.9928 16.3009C23.0183 16.3619 23.0314 16.4274 23.0314 16.4935C23.0314 16.5596 23.0183 16.6251 22.9928 16.6861C22.9673 16.7471 22.93 16.8025 22.883 16.849L21.022 18.713Z" fill="#F5222D"/>
</svg>
